# AST/ASF file generated using VICON BodyLanguage
# -----------------------------------------------
:version 1.10
:name VICON
:units
  mass 1.0
  length 0.45
  angle deg
:documentation
   .ast/.asf automatically generated from VICON data using
   VICON BodyBuilder and BodyLanguage model FoxedUp or BRILLIANT.MOD
:root
   order TX TY TZ RX RY RZ
   axis XYZ
   position 0 0 0  
   orientation 0 0 0 
:bonedata
  begin
     id 1 
     name lhipjoint
     direction 0.584852 -0.759097 0.285867 
     length 2.43633 
     axis 0 0 0  XYZ
  end
  begin
     id 2 
     name lfemur
     direction 0.34202 -0.939693 0  
     length 7.14704  
     axis 0 0 20  XYZ
    dof rx ry rz
    limits (-160.0 20.0)
           (-70.0 70.0)
           (-60.0 70.0)
  end
  begin
     id 3 
     name ltibia
     direction 0.342022 -0.939692 0   
     length 7.68483   
     axis 0 0 20   XYZ
    dof rx
    limits (-10.0 170.0)
  end
  begin
     id 4 
     name lfoot
     direction 0.0999605 -0.274639 0.956337   
     length 2.40452   
     axis -90 7.62852e-016 20   XYZ
    dof rx rz
    limits (-45.0 90.0)
           (-70.0 20.0)
  end
  begin
     id 5 
     name ltoes
     direction 1.53468e-011 -4.21881e-011 1   
     length 1.19837   
     axis -90 7.62852e-016 20   XYZ
    dof rx
    limits (-90.0 20.0)
  end
  begin
     id 6 
     name rhipjoint
     direction -0.569886 -0.769002 0.289597   
     length 2.40495  
     axis 0 0 0  XYZ 
  end
  begin
     id 7 
     name rfemur
     direction -0.34202 -0.939693 0   
     length 7.45086   
     axis 0 0 -20   XYZ
    dof rx ry rz
    limits (-160.0 20.0)
           (-70.0 70.0)
           (-70.0 60.0)
  end
  begin
     id 8 
     name rtibia
     direction -0.34202 -0.939693 0   
     length 7.76831   
     axis 0 0 -20   XYZ
    dof rx
    limits (-10.0 170.0)
 end
 begin
     id 9 
     name rfoot
     direction -0.0798572 -0.219406 0.97236   
     length 2.35911  
     axis -90 -7.62852e-016 -20   XYZ
    dof rx rz
    limits (-45.0 90.0)
           (-20.0 70.0)
  end
  begin
     id 10 
     name rtoes
     direction -1.53469e-011 -4.21728e-011 1   
     length 1.18261   
     axis -90 -7.62852e-016 -20   XYZ
    dof rx
    limits (-90.0 20.0)
  end
  begin
     id 11 
     name lowerback
     direction 0.0242088 0.999437 0.0232389   
     length 2.1561   
     axis 0 0 0   XYZ
    dof rx ry rz
    limits (-20.0 45.0)
           (-30.0 30.0)
           (-30.0 30.0)
  end
  begin
     id 12 
     name upperback
     direction -0.0356893 0.999013 -0.0264323   
     length 2.14431   
     axis 0 0 0   XYZ
    dof rx ry rz
    limits (-20.0 45.0)
           (-30.0 30.0)
           (-30.0 30.0)
  end
  begin
     id 13 
     name thorax
     direction -0.0472163 0.998194 -0.0371284   
     length 2.16169   
     axis 0 0 0   XYZ
    dof rx ry rz
    limits (-20.0 45.0)
           (-30.0 30.0)
           (-30.0 30.0)
  end
  begin
     id 14 
     name lowerneck
     direction 0.00863244 0.999921 0.00911972   
     length 1.58651   
     axis 0 0 0   XYZ
    dof rx ry rz
    limits (-20.0 45.0)
           (-30.0 30.0)
           (-30.0 30.0)
  end
  begin
     id 15 
     name upperneck
     direction 0.149523 0.979068 -0.138086   
     length 1.57486   
     axis 0 0 0   XYZ
    dof rx ry rz
    limits (-20.0 45.0)
           (-30.0 30.0)
           (-30.0 30.0)
  end
  begin
     id 16
     name head
     direction 0.0445219 0.997708 -0.0509576  
     length 1.6019  
     axis 0 0 0   XYZ
    dof rx ry rz
    limits (-20.0 45.0)
           (-30.0 30.0)
           (-30.0 30.0)
  end
  begin
     id 17 
     name lclavicle
     direction 0.911271 0.381667 -0.154644  
     length 3.80848  
     axis 0 0 0   XYZ
    dof ry rz
    limits (-20.0 10.0)
           (0.0 20.0)
  end
  begin
     id 18 
     name lhumerus
     direction 1 -4.49003e-011 2.1308e-027   
     length 5.19069   
     axis 180 -30 -90   XYZ
    dof rx ry rz
    limits (-60.0 90.0)
           (-90.0 90.0)
           (-90.0 90.0)
  end
  begin
     id 19
     name lradius
     direction 1 -4.48914e-011 4.01554e-027   
     length 3.30016   
     axis 180 -30 -90   XYZ
    dof rx
    limits (-10.0 170.0)
  end
  begin
     id 20
     name lwrist
     direction 1 -4.49003e-011 1.1934e-026   
     length 1.65008   
     axis -8.46377e-015 90 90   XYZ
    dof ry
    limits (-180.0 0.0)
 end
  begin
     id 21 
     name lhand
     direction 1 -4.49034e-011 2.38659e-026   
     length 0.707698   
     axis -1.52313e-014 90 90   XYZ
    dof rx rz
    limits (-90.0 90.0)
           (-45.0 45.0)
  end
  begin
     id 22 
     name lfingers
     direction 1 -4.48691e-011 4.77775e-026   
     length 0.570564   
     axis -3.04623e-014 90 90   XYZ
    dof rx
    limits (0.0 90.0)
  end
  begin
     id 23
     name lthumb
     direction 0.707107 -6.34832e-011 0.707107   
     length 0.819219   
     axis -90 45 -1.62303e-014   XYZ
    dof rx rz
    limits (-45.0 45.0)
           (-45.0 45.0)
  end
  begin
     id 24 
     name rclavicle
     direction -0.815579 0.573708 -0.0754329   
     length 3.54371  
     axis 0 0 0   XYZ 
    dof ry rz
    limits (-10.0 20.0)
           (-20.0 0.0)
  end
  begin
     id 25 
     name rhumerus
     direction -1 -4.48956e-011 3.05351e-028  
     length 5.23924   
     axis 180 30 90   XYZ
    dof rx ry rz
    limits (-90.0 60.0)
           (-90.0 90.0)
           (-90.0 90.0)
  end
  begin
     id 26 
     name rradius
     direction -1 -4.49013e-011 3.53849e-027   
     length 3.32953   
     axis 180 30 90   XYZ
    dof rx
    limits (-10.0 170.0)
  end
  begin
     id 27 
     name rwrist
     direction -1 -4.48901e-011 1.19374e-026   
     length 1.66477   
     axis -8.46377e-015 -90 -90   XYZ
    dof ry
    limits (-180.0 0.0)
  end
  begin
     id 28
     name rhand
     direction -1 -4.48877e-011 2.38764e-026   
     length 0.607414   
     axis -1.52313e-014 -90 -90   XYZ
    dof rx rz
    limits (-90.0 90.0)
           (-45.0 45.0)
  end
  begin
     id 29
     name rfingers
     direction -1 -4.48882e-011 4.77521e-026   
     length 0.489712   
     axis -3.04623e-014 -90 -90   XYZ
    dof rx
    limits (0.0 90.0)
  end
  begin
     id 30
     name rthumb
     direction -0.707107 -6.34974e-011 0.707107   
     length 0.703132   
     axis -90 -45 1.62303e-014   XYZ
    dof rx rz
    limits (-45.0 45.0)
           (-45.0 45.0)
  end
:hierarchy
  begin
    root lhipjoint rhipjoint lowerback
    lhipjoint lfemur
    lfemur ltibia
    ltibia lfoot
    lfoot ltoes
    rhipjoint rfemur
    rfemur rtibia
    rtibia rfoot
    rfoot rtoes
    lowerback upperback
    upperback thorax
    thorax lowerneck lclavicle rclavicle
    lowerneck upperneck
    upperneck head
    lclavicle lhumerus
    lhumerus lradius
    lradius lwrist
    lwrist lhand lthumb
    lhand lfingers
    rclavicle rhumerus
    rhumerus rradius
    rradius rwrist
    rwrist rhand rthumb
    rhand rfingers
  end

#!OML:ASF E:\VariousWalksJay\Project 1\Capture day 1\Session 1\Actor2.ASF
:FULLY-SPECIFIED
:DEGREES
390
root 9.2364 16.8004 41.2268 174.407 -54.6788 -171.749
lowerback -0.41105 0.683357 5.81323
upperback 4.51211 0.631948 -0.232739
thorax 4.99124 0.511972 -3.47356
lowerneck -9.28362 0.65095 0.739175
upperneck 6.00585 -0.123065 8.64921
head 3.66519 0.263596 2.77063
rclavicle -6.34123e-014 -5.96354e-015
rhumerus -41.9969 6.30571 -86.4336
rradius 42.2783
rwrist 0.275938
rhand -11.7382 -2.08787
rfingers 7.12502
rthumb 14.3093 -31.5748
lclavicle -6.34123e-014 -5.96354e-015
lhumerus -33.3506 -13.9321 83.0368
lradius 33.064
lwrist 7.64684
lhand -6.42089 -10.0303
lfingers 7.12502
lthumb 19.4277 19.0191
rfemur -9.43581 -6.40646 25.7569
rtibia 32.1207
rfoot -25.2168 -18.2079
rtoes -2.31186
lfemur -10.2495 2.5601 -13.6224
ltibia 29.518
lfoot -19.5178 -0.227539
ltoes -6.54093
391
root 9.23724 16.8 41.2268 174.42 -54.6435 -171.756
lowerback -0.426867 0.691314 5.79876
upperback 4.51456 0.642234 -0.238062
thorax 5.00368 0.517061 -3.47033
lowerneck -9.25648 0.656946 0.697596
upperneck 5.96915 -0.110242 8.694
head 3.64715 0.268784 2.79343
rclavicle -1.00585e-013 1.98785e-015
rhumerus -41.9941 6.2791 -86.4653
rradius 42.288
rwrist 0.272643
rhand -11.4819 -2.07217
rfingers 7.12502
rthumb 14.5562 -31.5414
lclavicle -1.00585e-013 1.98785e-015
lhumerus -33.4027 -13.9916 83.0524
lradius 33.1233
lwrist 7.75136
lhand -6.4466 -9.96688
lfingers 7.12502
lthumb 19.403 19.0851
rfemur -9.4476 -6.35928 25.7605
rtibia 32.1292
rfoot -25.2495 -18.1863
rtoes -2.11513
lfemur -10.2471 2.60319 -13.6249
ltibia 29.5068
lfoot -19.5289 -0.197181
ltoes -6.66894
392
root 9.23821 16.8005 41.2248 174.414 -54.6314 -171.793
lowerback -0.404207 0.695744 5.76738
upperback 4.55636 0.64706 -0.236126
thorax 5.03469 0.51898 -3.45049
lowerneck -9.33288 0.642651 0.643394
upperneck 5.95256 -0.123347 8.70048
head 3.65743 0.262893 2.80597
rclavicle -1.44119e-014 3.18055e-015
rhumerus -41.9729 6.23567 -86.4677
rradius 42.33
rwrist 0.320149
rhand -11.4317 -2.11105
rfingers 7.12502
rthumb 14.6046 -31.5768
lclavicle -1.44119e-014 3.18055e-015
lhumerus -33.294 -13.8896 83.0374
lradius 33.0319
lwrist 7.68201
lhand -6.43142 -9.98703
lfingers 7.12502
lthumb 19.4176 19.0634
rfemur -9.40381 -6.29186 25.7498
rtibia 32.1311
rfoot -25.2441 -18.2506
rtoes -2.15586
lfemur -10.1938 2.63706 -13.634
ltibia 29.4941
lfoot -19.5205 -0.231059
ltoes -6.58638
393
root 9.23949 16.8003 41.2243 174.412 -54.6312 -171.793
lowerback -0.414711 0.69439 5.73439
upperback 4.56122 0.645488 -0.237797
thorax 5.04489 0.517241 -3.43368
lowerneck -9.29713 0.641486 0.701477
upperneck 5.92907 -0.127754 8.6766
head 3.64165 0.259416 2.78531
rclavicle -9.05464e-014 1.98785e-015
rhumerus -41.9746 6.19217 -86.4997
rradius 42.3321
rwrist 0.320096
rhand -11.4899 -2.08656
rfingers 7.12502
rthumb 14.5486 -31.5564
lclavicle -9.05464e-014 1.98785e-015
lhumerus -33.3043 -13.8623 83.0209
lradius 33.0247
lwrist 7.66601
lhand -6.38795 -10.0128
lfingers 7.12502
lthumb 19.4594 19.0335
rfemur -9.40384 -6.28619 25.755
rtibia 32.131
rfoot -25.2389 -18.2581
rtoes -2.13791
lfemur -10.1872 2.60366 -13.637
ltibia 29.486
lfoot -19.5028 -0.150954
ltoes -6.87768
394
root 9.24034 16.8011 41.2244 174.387 -54.5833 -171.747
lowerback -0.405062 0.701379 5.78067
upperback 4.54736 0.655045 -0.241731
thorax 5.02692 0.523395 -3.46342
lowerneck -9.2362 0.650234 0.738238
upperneck 5.88289 -0.112199 8.64799
head 3.61203 0.264138 2.76719
rclavicle 8.24956e-015 3.57812e-015
rhumerus -41.9971 6.18979 -86.5457
rradius 42.3438
rwrist 0.303816
rhand -11.6438 -2.10149
rfingers 7.12502
rthumb 14.4002 -31.582
lclavicle 8.24956e-015 3.57812e-015
lhumerus -33.3293 -13.8515 83.0076
lradius 33.0153
lwrist 7.67497
lhand -6.42106 -10.0241
lfingers 7.12502
lthumb 19.4275 19.0254
rfemur -9.42311 -6.26603 25.7926
rtibia 32.1272
rfoot -25.2399 -18.226
rtoes -2.12347
lfemur -10.1862 2.57035 -13.5972
ltibia 29.4811
lfoot -19.5284 -0.132606
ltoes -6.68615
395
root 9.24092 16.8005 41.2248 174.376 -54.5709 -171.751
lowerback -0.404488 0.721579 5.77566
upperback 4.56137 0.681136 -0.241685
thorax 5.04404 0.536662 -3.4592
lowerneck -9.21879 0.62881 0.762234
upperneck 5.85597 -0.138837 8.6241
head 3.59993 0.249514 2.75187
rclavicle -2.24627e-014 1.39149e-014
rhumerus -42.0016 6.09148 -86.5358
rradius 42.3504
rwrist 0.341572
rhand -11.4953 -2.113
rfingers 7.12502
rthumb 14.5433 -31.5832
lclavicle -2.24627e-014 1.39149e-014
lhumerus -33.3009 -13.8928 83.0372
lradius 32.9965
lwrist 7.68489
lhand -6.4308 -9.97699
lfingers 7.12502
lthumb 19.4182 19.0734
rfemur -9.41157 -6.257 25.7868
rtibia 32.1249
rfoot -25.2255 -18.235
rtoes -2.14815
lfemur -10.17 2.52887 -13.6037
ltibia 29.4795
lfoot -19.5446 -0.0971583
ltoes -6.46505
396
root 9.24117 16.8004 41.2231 174.364 -54.5641 -171.74
lowerback -0.409995 0.719677 5.78001
upperback 4.55982 0.678949 -0.254834
thorax 5.04563 0.536193 -3.47543
lowerneck -9.21317 0.626396 0.753829
upperneck 5.86027 -0.145226 8.65883
head 3.60117 0.24711 2.76519
rclavicle 2.0773e-014 5.96354e-015
rhumerus -41.9994 6.05729 -86.5815
rradius 42.3345
rwrist 0.344368
rhand -11.5983 -2.0883
rfingers 7.12502
rthumb 14.4441 -31.5656
lclavicle 2.0773e-014 5.96354e-015
lhumerus -33.3258 -13.9069 83.0092
lradius 32.9971
lwrist 7.67315
lhand -6.42893 -9.99734
lfingers 7.12502
lthumb 19.42 19.0529
rfemur -9.39864 -6.2425 25.8034
rtibia 32.1163
rfoot -25.2418 -18.2479
rtoes -2.13418
lfemur -10.1755 2.61745 -13.5856
ltibia 29.4848
lfoot -19.5229 -0.127438
ltoes -6.74269
397
root 9.24124 16.8008 41.2231 174.371 -54.5467 -171.748
lowerback -0.413838 0.708924 5.7834
upperback 4.55932 0.664638 -0.262052
thorax 5.04599 0.529439 -3.48557
lowerneck -9.19344 0.640834 0.758875
upperneck 5.85661 -0.123077 8.63786
head 3.59463 0.257022 2.7578
rclavicle -7.83212e-014 -3.26007e-014
rhumerus -41.9908 6.07205 -86.6127
rradius 42.3241
rwrist 0.354191
rhand -11.6043 -2.07978
rfingers 7.12502
rthumb 14.4383 -31.5575
lclavicle -7.83212e-014 -3.26007e-014
lhumerus -33.3302 -13.8682 82.9922
lradius 32.978
lwrist 7.6715
lhand -6.46024 -9.95145
lfingers 7.12502
lthumb 19.3899 19.1018
rfemur -9.39825 -6.28653 25.7933
rtibia 32.1059
rfoot -25.1995 -18.2109
rtoes -2.31441
lfemur -10.1658 2.56012 -13.5939
ltibia 29.4822
lfoot -19.5013 -0.112956
ltoes -6.28397
398
root 9.24134 16.8011 41.2236 174.364 -54.5157 -171.714
lowerback -0.448802 0.705061 5.8028
upperback 4.56794 0.655377 -0.247582
thorax 5.07436 0.526154 -3.48151
lowerneck -9.2002 0.655894 0.723575
upperneck 5.84341 -0.0979126 8.64741
head 3.59046 0.268942 2.76898
rclavicle 8.94531e-016 -3.18055e-015
rhumerus -41.9573 6.05758 -86.605
rradius 42.3232
rwrist 0.359532
rhand -11.6306 -2.10074
rfingers 7.12502
rthumb 14.413 -31.5803
lclavicle 8.94531e-016 -3.18055e-015
lhumerus -33.2519 -13.7551 82.9772
lradius 32.872
lwrist 7.59961
lhand -6.48008 -9.95345
lfingers 7.12502
lthumb 19.3708 19.1017
rfemur -9.41827 -6.26398 25.8154
rtibia 32.0978
rfoot -25.204 -18.1632
rtoes -2.09041
lfemur -10.1799 2.59157 -13.5695
ltibia 29.481
lfoot -19.5172 -0.0766297
ltoes -6.54619
399
root 9.24165 16.8016 41.2214 174.298 -54.4927 -171.659
lowerback -0.453452 0.694696 5.80168
upperback 4.58157 0.639248 -0.230045
thorax 5.08944 0.518035 -3.46332
lowerneck -9.18383 0.661525 0.751371
upperneck 5.84439 -0.0892306 8.60713
head 3.58647 0.272225 2.75
rclavicle -1.00386e-013 3.18055e-014
rhumerus -41.9396 6.09559 -86.6288
rradius 42.3044
rwrist 0.361058
rhand -11.5403 -2.09094
rfingers 7.12502
rthumb 14.4999 -31.5643
lclavicle -1.00386e-013 3.18055e-014
lhumerus -33.2297 -13.6596 82.9496
lradius 32.8278
lwrist 7.54031
lhand -6.4543 -9.96977
lfingers 7.12502
lthumb 19.3956 19.0829
rfemur -9.37775 -6.13367 25.8737
rtibia 32.0797
rfoot -25.2435 -18.2684
rtoes -2.07106
lfemur -10.1517 2.61597 -13.5211
ltibia 29.4842
lfoot -19.5426 -0.0789243
ltoes -6.57722
400
root 9.23975 16.8014 41.222 174.37 -54.4976 -171.722
lowerback -0.497126 0.689252 5.78386
upperback 4.57494 0.63148 -0.244877
thorax 5.10635 0.51453 -3.46886
lowerneck -9.17165 0.662084 0.713331
upperneck 5.85571 -0.0860788 8.63086
head 3.58844 0.27391 2.76561
rclavicle -7.51406e-014 -2.78299e-015
rhumerus -41.9213 6.1053 -86.6412
rradius 42.2775
rwrist 0.325185
rhand -11.6303 -2.11395
rfingers 7.12502
rthumb 14.4132 -31.5935
lclavicle -7.51406e-014 -2.78299e-015
lhumerus -33.2439 -13.6516 82.946
lradius 32.8208
lwrist 7.55364
lhand -6.46737 -9.96757
lfingers 7.12502
lthumb 19.383 19.0864
rfemur -9.39399 -6.23524 25.8145
rtibia 32.0703
rfoot -25.2013 -18.1689
rtoes -2.04995
lfemur -10.1698 2.62229 -13.5739
ltibia 29.4832
lfoot -19.5283 -0.0540683
ltoes -6.70352
401
root 9.23928 16.8019 41.2215 174.347 -54.4766 -171.673
lowerback -0.526923 0.687868 5.80581
upperback 4.57231 0.626754 -0.233223
thorax 5.12045 0.513251 -3.46904
lowerneck -9.18524 0.667313 0.671095
upperneck 5.87832 -0.0793762 8.66674
head 3.59946 0.278502 2.78719
rclavicle 2.69353e-014 -1.07344e-014
rhumerus -41.8999 6.12265 -86.6472
rradius 42.2584
rwrist 0.29134
rhand -11.4639 -2.12684
rfingers 7.12502
rthumb 14.5736 -31.5949
lclavicle 2.69353e-014 -1.07344e-014
lhumerus -33.2544 -13.6378 82.9425
lradius 32.8266
lwrist 7.54343
lhand -6.46049 -9.95635
lfingers 7.12502
lthumb 19.3896 19.0969
rfemur -9.39655 -6.20184 25.8536
rtibia 32.054
rfoot -25.189 -18.2071
rtoes -2.22056
lfemur -10.1823 2.62101 -13.5404
ltibia 29.4844
lfoot -19.5497 -0.0476848
ltoes -6.70756
402
root 9.2384 16.8009 41.2213 174.35 -54.4717 -171.712
lowerback -0.518471 0.65923 5.78628
upperback 4.58768 0.588876 -0.242339
thorax 5.12757 0.494072 -3.46959
lowerneck -9.19378 0.691188 0.713163
upperneck 5.90377 -0.0503964 8.61928
head 3.60783 0.293107 2.76524
rclavicle -1.2921e-014 -2.26615e-014
rhumerus -41.8731 6.14564 -86.6652
rradius 42.2574
rwrist 0.291542
rhand -11.4391 -2.09851
rfingers 7.12502
rthumb 14.5975 -31.5648
lclavicle -1.2921e-014 -2.26615e-014
lhumerus -33.2693 -13.5864 82.9126
lradius 32.8485
lwrist 7.59563
lhand -6.49003 -9.90189
lfingers 7.12502
lthumb 19.3612 19.1542
rfemur -9.36533 -6.27771 25.8126
rtibia 32.057
rfoot -25.1828 -18.1305
rtoes -2.20052
lfemur -10.1407 2.62165 -13.5641
ltibia 29.4778
lfoot -19.5607 -0.0489224
ltoes -6.60835
403
root 9.23819 16.8008 41.2213 174.316 -54.4635 -171.66
lowerback -0.531671 0.679615 5.83124
upperback 4.58068 0.614167 -0.238728
thorax 5.1314 0.508542 -3.48967
lowerneck -9.18695 0.668118 0.692946
upperneck 5.90366 -0.0790971 8.62862
head 3.60805 0.278739 2.77047
rclavicle -3.67752e-014 1.43125e-014
rhumerus -41.9001 6.05438 -86.6442
rradius 42.2782
rwrist 0.317553
rhand -11.5947 -2.13456
rfingers 7.12502
rthumb 14.4476 -31.6116
lclavicle -3.67752e-014 1.43125e-014
lhumerus -33.2571 -13.6387 82.919
lradius 32.8208
lwrist 7.58103
lhand -6.50863 -9.91216
lfingers 7.12502
lthumb 19.3433 19.1458
rfemur -9.36806 -6.26293 25.8477
rtibia 32.042
rfoot -25.189 -18.1132
rtoes -2.08857
lfemur -10.1526 2.61568 -13.5294
ltibia 29.4883
lfoot -19.5673 -0.0445284
ltoes -6.62493
404
root 9.23766 16.8011 41.2213 174.38 -54.4585 -171.722
lowerback -0.560601 0.684863 5.82411
upperback 4.58258 0.621462 -0.272157
thorax 5.15105 0.513534 -3.51996
lowerneck -9.19944 0.658231 0.730642
upperneck 5.91311 -0.0962595 8.6036
head 3.6141 0.270699 2.75415
rclavicle 6.84813e-014 -1.59028e-015
rhumerus -41.8725 5.98005 -86.6523
rradius 42.2615
rwrist 0.342351
rhand -11.5009 -2.12613
rfingers 7.12502
rthumb 14.5379 -31.5967
lclavicle 6.84813e-014 -1.59028e-015
lhumerus -33.218 -13.6581 82.8819
lradius 32.7874
lwrist 7.59347
lhand -6.506 -9.90676
lfingers 7.12502
lthumb 19.3459 19.1509
rfemur -9.37894 -6.29048 25.8051
rtibia 32.0393
rfoot -25.1564 -18.114
rtoes -2.2462
lfemur -10.1676 2.64025 -13.5731
ltibia 29.4853
lfoot -19.5564 -0.0160751
ltoes -6.85049
